# xmcd
#
# Track frame offsets:
#   182
#   18080
#   34007
#   49095
#   64810
#   83892
#   101497
#   117980
#   135937
#   151432
#   167555
#   177762
#   197565
#   215830
#
# Disc length: 3127 seconds
#
# Revision: 0
# Processed by: cddbd v1.5.2PL0 Copyright (c) Steve Scherf et al.
# Submitted via: uFREEDB 1.6.0
#
DISCID=b30c350e
DTITLE=Tura, Will - Nieuwe Wegen
DYEAR=1900
DGENRE=Pop
TTITLE0=Nieuwe wegen liggen open
TTITLE1=En ik die zo van je hou
TTITLE2=Zij dweept met Clouseau
TTITLE3=Overgaan
TTITLE4=Het staat in de sterren geschreven
TTITLE5=Als jij de klok terug kon draaien
TTITLE6=In de armen van een ander
TTITLE7='k Hou van jazz
TTITLE8=Valparaiso
TTITLE9=Wat vliegt de tijd
TTITLE10=Het meisje met de bloemen
TTITLE11=Twee oudjes
TTITLE12=M'n verre Veurne
TTITLE13=Help me
EXTD=
EXTT0=
EXTT1=
EXTT2=
EXTT3=
EXTT4=
EXTT5=
EXTT6=
EXTT7=
EXTT8=
EXTT9=
EXTT10=
EXTT11=
EXTT12=
EXTT13=
PLAYORDER=
